<?xml version="1.0" encoding="UTF-8"?>
<svg version="1.1" xmlns="http://www.w3.org/2000/svg" width="2000" height="2000">
<path d="M0 0 C81.47210475 0 149.85709792 3.20825872 216 50 C216.99257812 50.69867188 217.98515625 51.39734375 219.0078125 52.1171875 C227.98658471 58.54488794 236.48680797 65.41458554 244.640625 72.859375 C246.6886696 74.71753467 248.7695697 76.52027421 250.875 78.3125 C260.17625249 86.44874713 268.33055469 95.32556258 276 105 C276.71542969 105.84820312 277.43085937 106.69640625 278.16796875 107.5703125 C329.97557622 169.00588242 344.16767703 244.79476668 344.14197242 322.81672513 C344.14175425 326.94012207 344.14736163 331.06351159 344.15237427 335.18690491 C344.16043171 342.31180503 344.16541154 349.43670164 344.16866493 356.56160545 C344.17420187 367.83814852 344.19113753 379.11466203 344.21000671 390.39118958 C344.21636094 394.26153464 344.22266967 398.13187979 344.22898388 402.00222492 C344.23056764 402.9690431 344.2321514 403.93586127 344.23378316 404.93197697 C344.25166648 415.9008569 344.26792101 426.86973886 344.28295898 437.83862305 C344.28502279 439.34018262 344.28502279 439.34018262 344.28712829 440.87207673 C344.30907965 457.10970014 344.31982258 473.34731573 344.32732973 489.58495136 C344.33541522 506.30423487 344.35874442 523.02345197 344.3952834 539.74269754 C344.41722666 550.03014983 344.42699827 560.3174653 344.42078307 570.6049398 C344.41759594 577.65616728 344.42902077 584.70727815 344.45167748 591.75846954 C344.46427426 595.81740711 344.47060156 599.87608466 344.45926094 603.93503189 C344.23334533 626.77513849 344.23334533 626.77513849 349 649 C349.28547353 649.85248919 349.57094706 650.70497839 349.8650713 651.58330059 C354.42766811 663.90917823 361.19760373 674.53005397 370.27734375 684.00390625 C372 686 372 686 372 688 C372.59458008 688.27239502 373.18916016 688.54479004 373.80175781 688.82543945 C375.94440556 689.97029488 377.42006637 691.12644698 379.171875 692.79296875 C379.74969727 693.33727539 380.32751953 693.88158203 380.92285156 694.44238281 C381.52581055 695.01827148 382.12876953 695.59416016 382.75 696.1875 C384.00963593 697.37452696 385.2700465 698.56073245 386.53125 699.74609375 C387.43423828 700.5966333 387.43423828 700.5966333 388.35546875 701.46435547 C390.87484598 703.8169212 393.4692744 706.0760403 396.078125 708.328125 C398.41105074 710.35758073 400.70511245 712.427647 403 714.5 C405.98062721 717.18983431 408.97245233 719.86310364 412 722.5 C415.89512811 725.89253093 419.72782763 729.35194201 423.5625 732.8125 C425.69417481 734.72554149 427.8401911 736.61887612 430 738.5 C433.89651647 741.89374015 437.73064945 745.35430003 441.56640625 748.81640625 C443.67511146 750.70848685 445.79919801 752.57905758 447.9375 754.4375 C452.13164365 758.08937053 456.23094292 761.84266184 460.33984375 765.58984375 C463.18755795 768.16993136 466.07244018 770.70201856 468.97265625 773.22265625 C471.33489173 775.29359487 473.66795853 777.39512848 476 779.5 C478.98062721 782.18983431 481.97245233 784.86310364 485 787.5 C488.89719074 790.89432742 492.7328797 794.35438438 496.56640625 797.8203125 C498.66700615 799.70174868 500.79412051 801.54282694 502.9375 803.375 C519.70317917 818.14637459 531.39007269 835.04576525 537 857 C537.226875 857.88429688 537.45375 858.76859375 537.6875 859.6796875 C543.18921636 886.04207839 537.16444827 913.00495281 522.81176758 935.42651367 C516.92950921 944.31303915 510.11930542 951.11611597 501.71972656 957.66015625 C499.79346362 959.16091307 497.87745436 960.67431916 495.9609375 962.1875 C487.52693351 968.8193905 478.97742628 975.27357928 470.31835938 981.6081543 C464.32357071 986.00120274 458.40101407 990.48194292 452.5 995 C445.11367991 1000.65365962 437.66805268 1006.21470389 430.1640625 1011.7109375 C423.32951092 1016.72899697 416.58915896 1021.8653437 409.86010742 1027.02368164 C404.71028278 1030.96290782 399.51767739 1034.832359 394.27441406 1038.64624023 C386.79608358 1044.08738569 379.64663698 1049.54846978 373 1056 C372.37222656 1056.5775 371.74445313 1057.155 371.09765625 1057.75 C356.7765637 1071.28766298 345.72221253 1094.17820485 344.87054014 1114.01538277 C344.86842417 1115.08869787 344.8663082 1116.16201298 344.86412811 1117.26785278 C344.85927037 1118.51328732 344.85441262 1119.75872185 344.84940767 1121.04189682 C344.84902245 1122.41611479 344.84872667 1123.79033278 344.84851074 1125.16455078 C344.84465867 1126.63072958 344.84037083 1128.09690728 344.83568525 1129.56308365 C344.82406302 1133.58881675 344.81856519 1137.61453853 344.81405044 1141.64028502 C344.80809387 1145.98420767 344.79642715 1150.32811534 344.78541565 1154.67202759 C344.76706865 1162.20204268 344.75222095 1169.73205813 344.73963928 1177.26208496 C344.72131916 1188.17318979 344.6966521 1199.08427336 344.67026538 1209.99536133 C344.62746181 1227.72964803 344.58835913 1245.46394066 344.55224609 1263.19824219 C344.55008329 1264.25971844 344.54792049 1265.32119469 344.54569215 1266.41483688 C344.53256445 1272.86720962 344.51952319 1279.31958252 344.50651073 1285.77195549 C344.4870515 1295.41991069 344.46750227 1305.0678657 344.44775391 1314.71582031 C344.44559504 1315.77114952 344.44343617 1316.82647872 344.44121188 1317.9137876 C344.40499038 1335.56262564 344.36502029 1353.21145334 344.32245111 1370.86027718 C344.29641492 1381.73022265 344.27372702 1392.60016514 344.25546753 1403.47012651 C344.24271265 1410.93637067 344.22655493 1418.40260262 344.20781839 1425.86883414 C344.19715741 1430.16516687 344.18800089 1434.46148806 344.18312263 1438.75783157 C344.12846874 1484.57069703 344.12846874 1484.57069703 341.75 1503.375 C341.62069092 1504.4069751 341.49138184 1505.4389502 341.3581543 1506.50219727 C337.61142074 1534.85370206 329.49165032 1561.85180291 318 1588 C317.68095703 1588.73976074 317.36191406 1589.47952148 317.03320312 1590.24169922 C306.84127141 1613.73377862 292.58245006 1635.53729301 276 1655 C275.11241755 1656.07220227 274.22574611 1657.14515914 273.33984375 1658.21875 C262.40802571 1671.35340143 250.49433755 1683.49196122 237 1694 C235.83757423 1694.94904991 234.67756909 1695.90106959 233.51953125 1696.85546875 C225.02793995 1703.82318534 216.28280526 1710.13096665 207 1716 C206.41847168 1716.37189453 205.83694336 1716.74378906 205.23779297 1717.12695312 C141.61174699 1757.58220187 75.41285626 1761 0 1761 C0 1696.32 0 1631.64 0 1565 C27.72 1564.505 27.72 1564.505 56 1564 C77.27195036 1560.45467494 95.52090187 1555.0783662 112 1541 C112.79921875 1540.35675781 113.5984375 1539.71351562 114.421875 1539.05078125 C133.10314412 1523.35735486 143.03691662 1499.79448102 146 1476 C146.27270045 1470.85466033 146.27354915 1465.71564222 146.25828552 1460.56465149 C146.26114574 1459.03355978 146.26488675 1457.5024695 146.26942402 1455.97138184 C146.27934041 1451.79394626 146.2770488 1447.61659528 146.27269709 1443.43915355 C146.27020872 1438.92145178 146.2793051 1434.40377157 146.28707886 1429.88607788 C146.29909795 1422.06314529 146.30423047 1414.24023303 146.30496025 1406.41729164 C146.30629019 1395.07956241 146.32144073 1383.74188217 146.34045542 1372.4041703 C146.37127227 1353.97119448 146.39544595 1335.53821741 146.41333008 1317.10522461 C146.41440276 1316.00306908 146.41547544 1314.90091355 146.41658062 1313.76535936 C146.42838571 1301.48550109 146.43859297 1289.20564231 146.44702148 1276.92578125 C146.45009521 1272.48038736 146.45318406 1268.03499347 146.45629883 1263.58959961 C146.45706417 1262.49273802 146.45782951 1261.39587643 146.45861804 1260.26577661 C146.47174249 1241.91498409 146.49644307 1223.56422692 146.53004223 1205.21346062 C146.55023038 1193.91931129 146.56063577 1182.62523784 146.55805302 1171.33107033 C146.55701048 1163.57470137 146.56677355 1155.81839206 146.58469205 1148.06204394 C146.59464252 1143.60120973 146.59996886 1139.14050762 146.59192467 1134.67966652 C146.56074983 1115.56817036 147.02424166 1096.93496105 150 1078 C150.10705918 1077.30359583 150.21411836 1076.60719165 150.32442176 1075.88968432 C150.8621218 1072.42693478 151.47658777 1068.99392826 152.1875 1065.5625 C152.39544189 1064.54994141 152.60338379 1063.53738281 152.81762695 1062.49414062 C163.55015526 1012.51396586 187.48864179 966.0624154 221.8828125 928.3359375 C223.79080203 926.23081252 225.65047069 924.09386366 227.5 921.9375 C233.79114732 914.73101254 240.66490926 908.13204242 248 902 C248.52916016 901.5570459 249.05832031 901.1140918 249.60351562 900.65771484 C258.4901208 893.24978249 267.58252262 886.22826883 277.0559082 879.58178711 C277.831521 879.02628174 278.60713379 878.47077637 279.40625 877.8984375 C280.10041016 877.41036621 280.79457031 876.92229492 281.50976562 876.41943359 C282.24743164 875.71681396 282.24743164 875.71681396 283 875 C283.31564687 872.08199689 283.31564687 872.08199689 281.84179688 870.57714844 C281.30619141 870.0927832 280.77058594 869.60841797 280.21875 869.109375 C279.62803711 868.56829102 279.03732422 868.02720703 278.42871094 867.46972656 C277.47399902 866.61846191 277.47399902 866.61846191 276.5 865.75 C275.85579102 865.16444336 275.21158203 864.57888672 274.54785156 863.97558594 C270.71077507 860.49805415 266.84184227 857.05577837 262.921875 853.671875 C260.58894926 851.64241927 258.29488755 849.572353 256 847.5 C253.08511071 844.86819555 250.15726789 842.25713074 247.1875 839.6875 C231.93776375 826.33632529 218.15136123 812.25067081 206 796 C205.58153809 795.44376953 205.16307617 794.88753906 204.73193359 794.31445312 C163.0539598 738.57036644 146.46321307 673.3042887 146.59657824 604.59526956 C146.60140367 600.36429497 146.58867953 596.1333642 146.57821655 591.90240479 C146.56238401 584.60190866 146.55695148 577.30146778 146.55874443 570.00095558 C146.56114894 559.42877386 146.54501711 548.85667904 146.52429188 538.28452023 C146.49091323 521.10073796 146.46915469 503.91696356 146.45629883 486.7331543 C146.45552934 485.70889525 146.45475985 484.6846362 146.45396704 483.629339 C146.45086457 479.47892254 146.44778177 475.32850607 146.444727 471.17808958 C146.436181 459.72964567 146.42528083 448.28120449 146.41333008 436.83276367 C146.41172805 435.29328146 146.41172805 435.29328146 146.41009366 433.72269861 C146.39197276 416.58172616 146.36597242 399.44077241 146.33519894 382.29981822 C146.31671567 371.75780706 146.30573359 361.21583793 146.30467702 350.67381033 C146.30356968 343.45449605 146.29558134 336.23521064 146.28229337 329.01590858 C146.27491313 324.85989764 146.27074754 320.70394989 146.27541161 316.54793358 C146.27965164 312.73317143 146.27455618 308.91853239 146.26250375 305.10378798 C146.25848931 303.09380809 146.26416042 301.08381576 146.27034944 299.07384139 C146.21459593 286.85251165 145.45938176 274.3227037 141.25 262.75 C140.85421753 261.62343994 140.85421753 261.62343994 140.45043945 260.47412109 C136.30002639 248.96150428 130.64284465 239.55704889 123 230 C122.53207031 229.36578125 122.06414062 228.7315625 121.58203125 228.078125 C108.46646209 211.12877408 84.70883289 200.10632493 64 197 C42.71049341 195.47932096 21.33947999 195.4267896 0 195 C0 130.65 0 66.3 0 0 Z " fill="#01C8F0" transform="translate(961,120)"/>
<path d="M0 0 C0.64743164 0.24202148 1.29486328 0.48404297 1.96191406 0.73339844 C35.78286762 13.67228614 61.18600045 40.3347391 76 73 C90.01090713 107.03751937 89.19706657 144.56846386 75.21875 178.40234375 C68.51925198 193.83705058 58.86402535 207.13597465 47 219 C46.53513184 219.46744629 46.07026367 219.93489258 45.59130859 220.41650391 C19.49941635 246.36518165 -14.55999153 257.34319965 -50.88525391 257.31689453 C-86.26906607 257.09204962 -117.55112078 241.78028361 -142.8125 217.4375 C-165.48667819 193.81624312 -178.49076423 162.59005991 -180 130 C-180.04125 129.24332031 -180.0825 128.48664063 -180.125 127.70703125 C-180.72427291 105.94593372 -175.58663928 84.43006355 -166 65 C-165.505 63.99453125 -165.01 62.9890625 -164.5 61.953125 C-148.55244197 31.2714101 -120.09753097 8.23122962 -87.3125 -2.3125 C-58.59671683 -10.42470875 -28.12875301 -10.65765604 0 0 Z " fill="#01C8F0" transform="translate(679,1179)"/>
<path d="M0 0 C0.76731445 0.23605957 1.53462891 0.47211914 2.32519531 0.71533203 C31.91802699 10.04808558 58.75139841 29.29039396 75 56 C75.37850098 56.61987793 75.75700195 57.23975586 76.14697266 57.87841797 C95.54974735 89.99252837 100.4360768 125.90413549 92.0390625 162.375 C86.83502513 182.80726474 76.13777302 200.68179786 62.6875 216.6875 C62.1836377 217.28876709 61.67977539 217.89003418 61.16064453 218.50952148 C58.68967896 221.36644643 56.59437993 223.67665347 53 225 C53 225.66 53 226.32 53 227 C31.89960392 246.51700583 1.92650304 260.04768714 -27 261 C-27.67691895 261.02578125 -28.35383789 261.0515625 -29.05126953 261.078125 C-66.91049062 262.34883517 -101.3460947 249.91977787 -129.19140625 224.06640625 C-153.83905168 200.6020231 -168.84627395 168.16032352 -170 134 C-170.03996094 133.17371094 -170.07992188 132.34742188 -170.12109375 131.49609375 C-171.07167118 94.87090471 -156.64936766 60.73571756 -131.71704102 34.31445312 C-98.96229 0.78021644 -45.15565875 -14.3677096 0 0 Z " fill="#01C8F0" transform="translate(669,568)"/>
</svg>
